<svg width="48" height="48" viewBox="0 0 48 48" version="1.1" xmlns="http://www.w3.org/2000/svg" xmlns:xlink="http://www.w3.org/1999/xlink">
<title>ic_haskell_48</title>
<desc>Created using Figma</desc>
<g id="Canvas" transform="translate(2529 859)">
<clipPath id="clip-0" clip-rule="evenodd">
<path d="M -2529 -859L -2481 -859L -2481 -811L -2529 -811L -2529 -859Z" fill="#FFFFFF"/>
</clipPath>
<g id="ic_haskell_48" clip-path="url(#clip-0)">
<g id="Group">
<g id="Vector">
<use xlink:href="#path0_fill" transform="translate(-2525 -850)" fill="#453A62"/>
</g>
<g id="Vector">
<use xlink:href="#path1_fill" transform="translate(-2515.59 -850)" fill="#4F465B"/>
</g>
<g id="Vector">
<use xlink:href="#path2_fill" transform="translate(-2495.98 -834.706)" fill="#954D81"/>
</g>
<g id="Vector">
<use xlink:href="#path3_fill" transform="translate(-2500.69 -841.765)" fill="#954D81"/>
</g>
</g>
</g>
</g>
<defs>
<path id="path0_fill" d="M 0 28.2348L 9.41171 14.1174L 0 0L 7.0587 0L 16.4704 14.1174L 7.0587 28.2348L 0 28.2348Z"/>
<path id="path1_fill" d="M -2.07513e-08 28.2348L 9.41171 14.1174L -2.07513e-08 0L 7.0587 0L 25.8818 28.2348L 18.8231 28.2348L 12.9411 19.4116L 7.0587 28.2348L -2.07513e-08 28.2348Z"/>
<path id="path2_fill" d="M 3.13702 4.70601L 0 0.00032424L 10.9801 0L 10.9801 4.70601L 3.13702 4.70601Z"/>
<path id="path3_fill" d="M 3.13734 4.70601L 4.15027e-08 0.000324198L 15.6861 -4.15027e-08L 15.6861 4.70601L 3.13734 4.70601Z"/>
</defs>
</svg>
